<svg width="14" height="12" viewBox="0 0 14 12" fill="none" xmlns="http://www.w3.org/2000/svg">
<path d="M3.09695 11.8962C3.3308 12.0772 3.62739 12.015 3.98101 11.7605L6.99823 9.56108L10.0212 11.7605C10.3748 12.015 10.6657 12.0772 10.9052 11.8962C11.1391 11.7209 11.1904 11.4326 11.0478 11.0198L9.85575 7.50299L12.9015 5.33182C13.2551 5.08304 13.3977 4.82295 13.3064 4.54024C13.2152 4.26885 12.9471 4.13315 12.5079 4.1388L8.77206 4.16142L7.63704 0.627605C7.50015 0.209202 7.29482 0 6.99823 0C6.70735 0 6.50202 0.209202 6.36513 0.627605L5.23011 4.16142L1.49423 4.1388C1.05505 4.13315 0.786981 4.26885 0.695723 4.54024C0.598761 4.82295 0.747055 5.08304 1.10068 5.33182L4.14642 7.50299L2.95436 11.0198C2.81177 11.4326 2.8631 11.7209 3.09695 11.8962Z" fill="#AC8E68"/>
</svg>
